<?xml version="1.0" encoding="UTF-8"?>
<!DOCTYPE svg PUBLIC "-//W3C//DTD SVG 1.1//EN" "http://www.w3.org/Graphics/SVG/1.1/DTD/svg11.dtd">
<!-- Creator: CorelDRAW -->
<svg xmlns="http://www.w3.org/2000/svg" xml:space="preserve" width="34.0358mm" height="34.0358mm" version="1.1" style="shape-rendering:geometricPrecision; text-rendering:geometricPrecision; image-rendering:optimizeQuality; fill-rule:evenodd; clip-rule:evenodd"
viewBox="0 0 3403.58 3403.58"
 xmlns:xlink="http://www.w3.org/1999/xlink"
 xmlns:xodm="http://www.corel.com/coreldraw/odm/2003">
 <defs>
  <style type="text/css">
   <![CDATA[
    .fil0 {fill:#00A859}
   ]]>
  </style>
 </defs>
 <g id="Camada_x0020_1">
  <metadata id="CorelCorpID_0Corel-Layer"/>
  <path class="fil0" d="M2508.35 2034.08c-41.49,-22.73 -245.26,-132.7 -283.49,-148.24 -38.21,-15.5 -66.09,-23.59 -95.88,17.65 -29.75,41.12 -114.3,133.26 -139.91,160.53 -25.75,27.29 -50.49,29.82 -92.01,7.05 -41.39,-22.64 -175.86,-72.39 -331.84,-222.32 -121.36,-116.67 -200.95,-258.14 -224.05,-301.32 -23.1,-43.23 -0.17,-65.25 21.78,-85.48 19.7,-18.26 44.12,-47.82 66.16,-71.66 21.99,-23.85 29.76,-41.19 44.88,-68.86 15.12,-27.67 9.03,-52.6 -0.77,-74.13 -9.78,-21.48 -86.48,-232.57 -118.52,-318.45 -32.02,-85.87 -67.71,-73.09 -92.37,-74.06 -24.65,-0.84 -52.67,-5.49 -80.85,-6.52 -28.16,-1.07 -74.36,7.81 -114.63,48.6 -40.29,40.81 -153.26,138.91 -161.05,346.83 -7.77,207.8 136.05,414.35 156.11,443.28 20.07,29 274.65,479.57 697.7,664.86 423.17,185.24 425.38,128.76 503.01,124.6 77.69,-4.08 253.76,-92.89 292.7,-190.14 38.9,-97.28 42.02,-181.85 32.13,-199.86 -9.92,-18 -37.63,-29.7 -79.1,-52.36zm-775.98 1001.66c-279.78,0 -540.37,-83.93 -757.94,-227.77l-529.44 169.47 172.08 -511.6c-164.92,-227.19 -262.35,-506.24 -262.35,-807.79 0,-759.72 618.03,-1377.78 1377.65,-1377.78 759.74,0 1377.75,618.06 1377.75,1377.78 0,759.66 -618.01,1377.69 -1377.75,1377.69zm0 -3032.67c-913.96,0 -1654.9,740.92 -1654.9,1654.98 0,312.66 86.76,605.1 237.45,854.57l-298.7 887.89 916.26 -293.32c237.12,131.07 509.77,205.84 799.89,205.84 914.1,0 1655,-741.02 1655,-1654.98 0,-914.06 -740.9,-1654.98 -1655,-1654.98z"/>
 </g>
</svg>
